<svg xmlns="http://www.w3.org/2000/svg" viewBox="0 0 128 128" width="128" height="128">
  <defs>
    <linearGradient id="g" x1="0" y1="0" x2="1" y2="1">
      <stop offset="0" stop-color="#7ab8ff"/>
      <stop offset="1" stop-color="#4f8cff"/>
    </linearGradient>
  </defs>
  <rect width="128" height="128" rx="28" fill="#0b0d10"/>
  <!-- tool nodes (periphery) -->
  <g fill="#2a2e37">
    <circle cx="64" cy="18" r="4.5"/>
    <circle cx="98" cy="38" r="4.5"/>
    <circle cx="110" cy="74" r="4.5"/>
    <circle cx="92" cy="108" r="4.5"/>
    <circle cx="36" cy="108" r="4.5"/>
    <circle cx="18" cy="74" r="4.5"/>
    <circle cx="30" cy="38" r="4.5"/>
  </g>
  <!-- connection lines -->
  <g stroke="#3d4351" stroke-width="1.6" fill="none">
    <line x1="64" y1="18" x2="64" y2="52"/>
    <line x1="98" y1="38" x2="74" y2="58"/>
    <line x1="110" y1="74" x2="76" y2="70"/>
    <line x1="92" y1="108" x2="72" y2="78"/>
    <line x1="36" y1="108" x2="56" y2="78"/>
    <line x1="18" y1="74" x2="52" y2="70"/>
    <line x1="30" y1="38" x2="54" y2="58"/>
  </g>
  <!-- browser core: outer ring + viewport -->
  <circle cx="64" cy="64" r="20" fill="none" stroke="url(#g)" stroke-width="3.2"/>
  <rect x="51" y="53" width="26" height="17" rx="4" fill="url(#g)" opacity="0.14"/>
  <rect x="51" y="53" width="26" height="5" rx="2" fill="url(#g)"/>
  <circle cx="55" cy="55.5" r="1.6" fill="#0b0d10"/>
  <circle cx="59" cy="55.5" r="1.6" fill="#0b0d10"/>
  <!-- pulse dot (live / autenticado) -->
  <circle cx="64" cy="64" r="3" fill="url(#g)"/>
</svg>
